# xmcd CD database file
#
# Track frame offsets:
#	150
#	17523
#	34975
#	53189
#	68986
#	86597
#	111739
#	124316
#	142004
#	155802
#	176428
#	195865
#	212960
#	229423
#	252762
#	280349
#	296617
#
# Disc length: 4421 seconds
#
# Revision: 0
# Processed by: cddbd v1.5.2PL0 Copyright (c) Steve Scherf et al.
# Submitted via: CDex 1.51
#
DISCID=09114311
DTITLE=Caro Emerald - DELETED SCENES FROM THE CUTTING ROOM FLOOR
DYEAR=2011
DGENRE=Jazz
TTITLE0=Billy Pols, Caro Emerald and HazazaH - A Night Like This
TTITLE1=Caro Emerald - That Man
TTITLE2=Caro Emerald - Just One Dance
TTITLE3=Caro Emerald - Riviera Life
TTITLE4=Caro Emerald - Back It Up
TTITLE5=Caro Emerald - The Other Woman
TTITLE6=Caro Emerald - Absolutely Me
TTITLE7=Caro Emerald - You Don't Love Me
TTITLE8=Caro Emerald - Dr. Wanna Do
TTITLE9=Caro Emerald - Stuck
TTITLE10=Caro Emerald - I Know That He's Mine
TTITLE11=Caro Emerald - A Night Like This
TTITLE12=Caro Emerald - The Lipstick On His Collar Doesn't Seem to Match Mine
TTITLE13=Caro Emerald - A Night Like This (Dorian White Remix)
TTITLE14=Caro Emerald - A Night Like This (Art Alec Remix)
TTITLE15=Caro Emerald - Back It Up (feat. Madcon)
TTITLE16=Caro Emerald - The Other Woman (Live)
EXTD=YEAR: 2011
EXTT0=
EXTT1=
EXTT2=
EXTT3=
EXTT4=
EXTT5=
EXTT6=
EXTT7=
EXTT8=
EXTT9=
EXTT10=
EXTT11=
EXTT12=
EXTT13=
EXTT14=
EXTT15=
EXTT16=
PLAYORDER=
